{"title":"Barsaat (1995 ) DVDRip 720p x264 AAC [ TaRa ].mkv","uid":15542910,"size":1048541791,"categoryP":"video","categoryS":"movies_dvdr","magnet":"?xt=urn:btih:5a6ceba6801204ef3f15742e5027f3c6ba56e2b5&amp;dn=Barsaat+%281995+%29+DVDRip+720p+x264+AAC+%5B+TaRa+%5D.mkv&amp;tr=udp%3A%2F%2Ftracker.leechers-paradise.org%3A6969&amp;tr=udp%3A%2F%2Fzer0day.ch%3A1337&amp;tr=udp%3A%2F%2Fopen.demonii.com%3A1337&amp;tr=udp%3A%2F%2Ftracker.coppersurfer.tk%3A6969&amp;tr=udp%3A%2F%2Fexodus.desync.com%3A6969","seeders":0,"leechers":2,"uploader":"MdTaRa","files":1,"time":1470936451,"description":"=======================================================================\r\nGeneral\r\nBarsaat (1995 ) DVDRip 720p x264 AAC [ TaRa ].mkv\r\nFormat                      : Matroska\r\nFormat version              : Version 4 / Version 2\r\nFile size                   : 1 000 MiB\r\nDuration                    : 2 h 44 min\r\nOverall bit rate mode       : Variable\r\nOverall bit rate            : 850 kb/s\r\n=======================================================================\r\nVideo\r\nID                          : 1\r\nFormat                      : AVC\r\nFormat/Info                 : Advanced Video Codec\r\nFormat profile              :   \r\nFormat settings, CABAC      : Yes\r\nFormat settings, ReFrames   : 3 frames\r\nCodec ID                    : V_MPEG4/ISO/AVC\r\nDuration                    : 2 h 44 min\r\nBit rate mode               : Variable\r\nBit rate                    : 752 kb/s\r\nMaximum bit rate            : 40.0 Mb/s\r\nWidth                       : 1 160 pixels\r\nHeight                      : 520 pixels\r\nDisplay aspect ratio        : 2.25:1\r\nFrame rate mode             : Constant\r\nFrame rate                  : 25.000 FPS\r\nColor space                 : YUV\r\nChroma subsampling          : 4:2:0\r\nBit depth                   : 8 bits\r\nScan type                   : Progressive\r\nBits/(Pixel*Frame)          : 0.050\r\nStream size                 : 884 MiB (88%)\r\nTitle                       : .....::::: TaRa :::::.....\r\nLanguage                    : Hindi\r\nDefault                     : Yes\r\nForced                      : No\r\n=====================================================================\r\nAudio\r\nID                          : 2\r\nFormat                      : AAC\r\nFormat/Info                 : Advanced Audio Codec\r\nFormat profile              : LC\r\nCodec ID                    : A_AAC\r\nDuration                    : 2 h 44 min\r\nBit rate                    : 96.0 kb/s\r\nChannel(s)                  : 2 channels\r\nChannel positions           : Front: L R\r\nSampling rate               : 48.0 kHz\r\nFrame rate                  : 46.875 FPS (1024 spf)\r\nCompression mode            : Lossy\r\nDelay relative to video     : 9 ms\r\nStream size                 : 113 MiB (11%)\r\nTitle                       : .....::::: TaRa :::::.....\r\nLanguage                    : Hindi\r\nDefault                     : Yes\r\nForced                      : No\r\n====================================================================== \nhttp://imgur.com/EL6q7yF \nhttp://imgur.com/Zvf0wYf","torrent":{"xt":"urn:btih:5a6ceba6801204ef3f15742e5027f3c6ba56e2b5","amp;dn":"Barsaat+%281995+%29+DVDRip+720p+x264+AAC+%5B+TaRa+%5D.mkv","amp;tr":["udp%3A%2F%2Ftracker.leechers-paradise.org%3A6969","udp%3A%2F%2Fzer0day.ch%3A1337","udp%3A%2F%2Fopen.demonii.com%3A1337","udp%3A%2F%2Ftracker.coppersurfer.tk%3A6969","udp%3A%2F%2Fexodus.desync.com%3A6969"],"infoHash":"5a6ceba6801204ef3f15742e5027f3c6ba56e2b5","infoHashBuffer":{"type":"Buffer","data":[90,108,235,166,128,18,4,239,63,21,116,46,80,39,243,198,186,86,226,181]},"announce":[],"urlList":[]}}